<svg xmlns="http://www.w3.org/2000/svg" xmlns:xlink="http://www.w3.org/1999/xlink" width="125" height="125" viewBox="0 0 100 100"><g><g transform="translate(50 50) scale(0.69 0.69) rotate(0) translate(-50 -50)" style="fill:#000000"><svg fill="#000000" xmlns:x="http://ns.adobe.com/Extensibility/1.0/" xmlns:i="http://ns.adobe.com/AdobeIllustrator/10.0/" xmlns:graph="http://ns.adobe.com/Graphs/1.0/" xmlns="http://www.w3.org/2000/svg" xmlns:xlink="http://www.w3.org/1999/xlink" version="1.1" x="0px" y="0px" viewBox="0 0 64 64" enable-background="new 0 0 64 64" xml:space="preserve"><metadata><sfw xmlns="http://ns.adobe.com/SaveForWeb/1.0/"><slices></slices><sliceSourceBounds y="-8160" x="-8165" width="16389" height="16384" bottomLeftOrigin="true"></sliceSourceBounds></sfw></metadata><g><g><path d="M45.414,22.586l-8-8C37.039,14.211,36.53,14,36,14h-2V8c0-1.104-0.896-2-2-2s-2,0.896-2,2v6h-2    c-0.53,0-1.039,0.211-1.414,0.586l-8,8C18.211,22.961,18,23.47,18,24v32c0,1.104,0.896,2,2,2h24c1.104,0,2-0.896,2-2V24    C46,23.47,45.789,22.961,45.414,22.586z M42,54H22V24.829L28.829,18H30v2.557c-1.19,0.694-2,1.97-2,3.443c0,2.206,1.794,4,4,4    c2.206,0,4-1.794,4-4c0-1.474-0.811-2.75-2-3.444V18h1.172L42,24.829V54z"></path><path d="M34,42v-2c0-1.104-0.896-2-2-2s-2,0.896-2,2v2h-2c-1.104,0-2,0.896-2,2s0.896,2,2,2h2v2c0,1.104,0.896,2,2,2s2-0.896,2-2    v-2h2c1.104,0,2-0.896,2-2s-0.896-2-2-2H34z"></path></g></g></svg></g></g></svg>

