<svg xmlns="http://www.w3.org/2000/svg" xmlns:xlink="http://www.w3.org/1999/xlink" width="125" height="125" viewBox="0 0 100 100"><g><g transform="translate(50 50) scale(0.69 0.69) rotate(0) translate(-50 -50)" style="fill:#000000"><svg fill="#000000" xmlns="http://www.w3.org/2000/svg" xmlns:xlink="http://www.w3.org/1999/xlink" version="1.1" x="0px" y="0px" viewBox="0 0 100 100" style="enable-background:new 0 0 100 100;" xml:space="preserve"><style type="text/css">
	.st0{fill:none;stroke:#000000;stroke-width:2;stroke-linecap:round;stroke-linejoin:round;stroke-miterlimit:10;}
</style><path d="M44.7,46.4h23.7c0.6,0,1-0.4,1-1v-8.6c0-0.6-0.4-1-1-1H44.7c-0.6,0-1,0.4-1,1v8.6C43.7,45.9,44.1,46.4,44.7,46.4z   M45.7,37.8h21.7v6.6H45.7V37.8z"></path><path d="M12.5,78.7h13.7v6.6c0,0.6,0.4,1,1,1h58.7c0.6,0,1-0.4,1-1V49.4l1.7,3.3c0.2,0.3,0.5,0.5,0.9,0.5c0.2,0,0.3,0,0.5-0.1  c0.5-0.3,0.7-0.9,0.4-1.4l-3.6-6.8c0,0,0,0,0,0c0,0,0,0,0,0l-8.7-15.3c-0.1-0.2-0.3-0.3-0.5-0.4L57,19.7c-0.3-0.1-0.6-0.1-0.8,0  L37,28.5v-3.7c0-7-5.7-12.7-12.7-12.7s-12.7,5.7-12.7,12.7v53C11.5,78.3,12,78.7,12.5,78.7z M13.5,46.4h11.7l-3.1,5.3  c-0.3,0.5-0.1,1.1,0.4,1.4c0.2,0.1,0.3,0.1,0.5,0.1c0.3,0,0.7-0.2,0.9-0.5l2.3-3.9v12.5H13.5V46.4z M26.4,44.4H13.5V30.2h21.1  L26.4,44.4z M13.5,76.7V63.3h12.7v13.4H13.5z M57.5,66.4l3.6,7.2l-3.6,7V66.4z M55.5,80.7l-3.7-7l3.7-7.2V80.7z M55.2,84.3h-8.9  l4.4-8.5L55.2,84.3z M62.3,75.8l4.2,8.5h-8.6L62.3,75.8z M67.4,81.6l-4-8l4-7.8V81.6z M62.3,71.4l-4.1-8.1h8.3L62.3,71.4z   M50.7,71.5l-4.3-8.2h8.6L50.7,71.5z M49.6,73.6l-3.9,7.5V66.3L49.6,73.6z M69.4,84.3v-22c0-0.6-0.4-1-1-1H44.7c0,0,0,0,0,0  c-0.1,0-0.1,0-0.2,0c-0.1,0-0.1,0-0.2,0.1c0,0,0,0,0,0c0,0-0.1,0.1-0.1,0.1c-0.1,0-0.1,0.1-0.2,0.1c0,0-0.1,0.1-0.1,0.2  c0,0.1-0.1,0.1-0.1,0.2c0,0.1,0,0.1,0,0.2c0,0,0,0.1,0,0.1v22H28.2V55h56.7v29.2H69.4z M56.5,21.7l20,9.2l8.4,14.7V53H28.2v-7.7  l8.4-14.5L56.5,21.7z M24.3,14C30.2,14,35,18.8,35,24.7v3.5H13.5v-3.5C13.5,18.8,18.3,14,24.3,14z"></path></svg></g></g></svg>