<svg xmlns="http://www.w3.org/2000/svg" xmlns:xlink="http://www.w3.org/1999/xlink" width="125" height="125" viewBox="0 0 100 100"><g><g transform="translate(50 50) scale(0.69 0.69) rotate(0) translate(-50 -50)" style="fill:#000000"><svg fill="#000000" xmlns="http://www.w3.org/2000/svg" xmlns:xlink="http://www.w3.org/1999/xlink" version="1.1" x="0px" y="0px" viewBox="0 0 66 66" enable-background="new 0 0 66 66" xml:space="preserve"><g><g><path d="M18.073,58.959c1.969,0,3.571-1.602,3.571-3.57V40.194c0-1.969-1.602-3.57-3.571-3.57c-1.969,0-3.571,1.602-3.571,3.57    v15.195C14.503,57.358,16.105,58.959,18.073,58.959z M16.003,40.194c0-1.142,0.929-2.07,2.071-2.07s2.071,0.929,2.071,2.07v15.195    c0,1.142-0.929,2.07-2.071,2.07s-2.071-0.929-2.071-2.07V40.194z"></path></g><g><path d="M32.998,58.959c1.969,0,3.571-1.602,3.571-3.57V40.194c0-1.969-1.602-3.57-3.571-3.57c-1.969,0-3.571,1.602-3.571,3.57    v15.195C29.427,57.358,31.03,58.959,32.998,58.959z M30.927,40.194c0-1.142,0.929-2.07,2.071-2.07c1.142,0,2.071,0.929,2.071,2.07    v15.195c0,1.142-0.929,2.07-2.071,2.07c-1.142,0-2.071-0.929-2.071-2.07V40.194z"></path></g><g><path d="M47.923,58.959c1.969,0,3.571-1.602,3.571-3.57V40.194c0-4.716-7.142-4.72-7.142,0v15.195    C44.352,57.358,45.954,58.959,47.923,58.959z M45.852,40.194c0-2.735,4.142-2.737,4.142,0v15.195c0,1.142-0.929,2.07-2.071,2.07    s-2.071-0.929-2.071-2.07V40.194z"></path></g><g><path d="M59.82,21.828c0-3.198,0-5.812,0-9.07c0-0.414-0.336-0.75-0.75-0.75h-5.917c2.711-3.722-2.435-8.109-5.683-4.86    l-4.86,4.86H42.19V6.608c0-0.414-0.336-0.75-0.75-0.75h-3.307V1.746c0-0.414-0.336-0.75-0.75-0.75h-9.058    c-0.414,0-0.75,0.336-0.75,0.75v4.112H24.27c-0.414,0-0.75,0.336-0.75,0.75v10.893c-1.523-2.366-4.067-4.014-7.011-4.298    c-0.124-1.02-0.176-3.397,1.521-5.659c0.248-0.332,0.181-0.802-0.15-1.05c-0.332-0.248-0.801-0.182-1.05,0.15    C16.113,7.6,15.663,8.569,15.38,9.481c-1.182-1.46-2.954-2.336-4.895-2.336c-0.983,0-1.933,0.224-2.821,0.664    C7.486,7.898,7.349,8.054,7.286,8.243C7.223,8.432,7.238,8.639,7.327,8.817c1.405,2.804,4.635,4.159,7.634,3.159    c-0.015,0.47,0.004,0.88,0.038,1.212c-4.667,0.295-8.416,3.994-8.787,8.64H1.92c-0.414,0-0.75,0.336-0.75,0.75v8.75    c0,0.414,0.336,0.75,0.75,0.75h1.57l3.762,28.649c0.32,2.438,2.416,4.277,4.876,4.277H53.88c2.459,0,4.556-1.839,4.876-4.277    l3.762-28.649h1.561c0.414,0,0.75-0.336,0.75-0.75v-8.75C64.83,21.577,63.87,21.828,59.82,21.828z M29.075,2.496h7.558v3.357    h-7.558V2.496z M9.098,8.848c1.903-0.571,4.036,0.071,5.269,1.75C12.492,11.17,10.343,10.542,9.098,8.848z M57.269,60.532    c-0.223,1.694-1.68,2.973-3.389,2.973H12.128c-1.71,0-3.166-1.278-3.389-2.973L5.003,32.08h56.002L57.269,60.532z M58.32,16.92    c-8.026,0-8.532-0.25-8.532,0.75c0,0.414,0.336,0.75,0.75,0.75h7.782v3.408H43.41l8.321-8.32h6.589V16.92z M50.129,7.543    c0.605,0,1.167,0.237,1.591,0.665c0.904,0.904,0.859,2.344,0,3.189L36.636,26.479c-0.172-1.55-1.258-2.988-3.19-3.188    c4.817-4.817,3.699-3.699,8.521-8.521c0.002-0.001,0.003-0.003,0.005-0.005l1.477-1.477c0.001-0.001,0.002-0.002,0.002-0.002    C48.957,7.781,48.92,7.543,50.129,7.543z M31.59,25.207c0.104-0.038,0.196-0.092,0.275-0.179c1.203-0.668,3.309-0.219,3.309,1.887    c0,3.003-4.358,3.023-4.358,0.034C30.816,26.289,31.066,25.63,31.59,25.207z M25.02,7.358h15.67v6.568l-7.901,7.901H25.02V7.358z     M15.597,14.658c4.115,0,7.507,3.153,7.888,7.17H11.962c0.349-1.687,1.846-2.959,3.635-2.959c0.992,0,0.992-1.5,0-1.5    c-2.616,0-4.767,1.944-5.137,4.459H7.71C8.091,17.811,11.483,14.658,15.597,14.658z M2.67,23.328    c0.016,0,3.126,0.004,21.601,0.004c0.007-0.001,0.013-0.001,0.02,0c0.007,0,0.012-0.004,0.019-0.004h6.979    c-0.17,0.17-0.62,0.585-0.713,0.785c-2.169,1.881-1.461,5.828,1.553,6.465H2.67V23.328z M63.33,30.578H33.866    c0.869-0.185,1.531-0.654,2-1.261c0.2-0.114,5.882-5.826,6.045-5.989H42c9.441,0,11.881,0,21.33,0V30.578z"></path></g></g></svg></g></g></svg>