<svg xmlns="http://www.w3.org/2000/svg" xmlns:xlink="http://www.w3.org/1999/xlink" width="2" height="2" viewBox="0 0 100 100"><g><g transform="translate(50 50) scale(0.69 0.69) rotate(0) translate(-50 -50)" style="fill:#FFFFFF"><svg fill="#FFFFFF" xmlns="http://www.w3.org/2000/svg" xmlns:xlink="http://www.w3.org/1999/xlink" version="1.1" x="0px" y="0px" viewBox="0 0 140 140" style="enable-background:new 0 0 140 140;" xml:space="preserve"><g><g><path d="M33.071991,21.9780273H14.3771648c-0.4521484,0-0.8481445-0.3037109-0.9658203-0.7402344L9.3805828,6.2597656    C9.3000164,5.9594727,9.363493,5.6386719,9.5529461,5.3916016C9.7419109,5.1445312,10.035368,5,10.3464031,5H33.071991    c0.5522461,0,1,0.4477539,1,1v14.9780273C34.071991,21.5302734,33.6242371,21.9780273,33.071991,21.9780273z     M15.1437664,19.9780273H32.071991V7H11.6510906L15.1437664,19.9780273z"></path></g><g><path d="M33.071991,95.456543c-0.5522461,0-1-0.4477539-1-1V6c0-0.5522461,0.4477539-1,1-1s1,0.4477539,1,1v88.456543    C34.071991,95.0087891,33.6242371,95.456543,33.071991,95.456543z"></path></g><g><g><path d="M113.927948,135c-4.956543,0-8.9887695-4.0322266-8.9887695-8.9887695s4.0322266-8.9892578,8.9887695-8.9892578     s8.9892578,4.0327148,8.9892578,8.9892578S118.884491,135,113.927948,135z M113.927948,119.0219727     c-3.8535156,0-6.9887695,3.1352539-6.9887695,6.9892578c0,3.8535156,3.1352539,6.9887695,6.9887695,6.9887695     c3.8540039,0,6.9892578-3.1352539,6.9892578-6.9887695C120.9172058,122.1572266,117.7819519,119.0219727,113.927948,119.0219727z     "></path></g><g><path d="M48.7970886,135c-4.956543,0-8.9887695-4.0322266-8.9887695-8.9887695s4.0322266-8.9892578,8.9887695-8.9892578     s8.9892578,4.0327148,8.9892578,8.9892578S53.7536316,135,48.7970886,135z M48.7970886,119.0219727     c-3.8535156,0-6.9887695,3.1352539-6.9887695,6.9892578c0,3.8535156,3.1352539,6.9887695,6.9887695,6.9887695     c3.8540039,0,6.9892578-3.1352539,6.9892578-6.9887695C55.7863464,122.1572266,52.6510925,119.0219727,48.7970886,119.0219727z"></path></g></g><g><g><g><path d="M75.3781433,40.7817383c-0.1816406,0-0.3652344-0.0493164-0.5302734-0.152832      c-1.277832-0.8017578-2.0405273-2.1313477-2.0405273-3.5576172c0-2.2338867,1.8925781-3.7348633,4.7094727-3.7348633      s4.7094727,1.5009766,4.7094727,3.7348633c0,1.4150391-0.7583008,2.7431641-2.0283203,3.5537109      c-0.4643555,0.2963867-1.0830078,0.1606445-1.3808594-0.3056641c-0.296875-0.465332-0.1601562-1.0834961,0.3056641-1.3808594      c0.690918-0.440918,1.1035156-1.1386719,1.1035156-1.8671875c0-1.6098633-2.0737305-1.7348633-2.7094727-1.7348633      s-2.7094727,0.125-2.7094727,1.7348633c0,0.7333984,0.4125977,1.4301758,1.1030273,1.8632812      c0.4682617,0.293457,0.609375,0.9106445,0.315918,1.378418C76.0363464,40.6157227,75.7111511,40.7817383,75.3781433,40.7817383z      "></path></g><g><g><path d="M83.3190613,40.8081055c-0.715332,0-1.190918-0.0234375-1.2709961-0.027832       c-0.5512695-0.0292969-0.9746094-0.5004883-0.9453125-1.0517578s0.5087891-0.9741211,1.0517578-0.9453125       c3.28125,0.1782227,8.3173828-0.3857422,9.2563477-1.8911133c0.4414062-0.7084961,0.4741211-2.9213867-0.1845703-4.9628906       c-0.3852539-1.1928711-0.8823242-1.8598633-1.2041016-1.9916992c-0.9697266-0.3969727-4.1396484,1.3295898-8.8305664,6.0571289       C80.8014832,36.3857422,80.1691589,36.3881836,79.7770691,36c-0.3916016-0.3891602-0.394043-1.0224609-0.0053711-1.4145508       c5.1577148-5.1977539,8.8603516-7.3823242,11.0112305-6.4975586c1.2426758,0.5097656,1.9619141,2.0361328,2.3461914,3.2270508       c0.6977539,2.1601562,0.9145508,5.1328125-0.0205078,6.6347656       C91.5129089,40.5073242,85.8791199,40.8081055,83.3190613,40.8081055z"></path></g><g><path d="M71.7135925,40.8081055c-2.5600586,0-8.1933594-0.3007812-9.7880859-2.8574219       c-0.9355469-1.503418-0.71875-4.4760742-0.0214844-6.6362305c0.3847656-1.190918,1.1040039-2.7167969,2.3481445-3.2275391       c2.1469727-0.8808594,5.8520508,1.300293,11.0092773,6.4990234C75.650116,34.9775391,75.6476746,35.6108398,75.2555847,36       c-0.3911133,0.3891602-1.0239258,0.3867188-1.4140625-0.0058594c-4.690918-4.7275391-7.8642578-6.4511719-8.8286133-6.0576172       c-0.3232422,0.1328125-0.8203125,0.7998047-1.2055664,1.9921875c-0.6591797,2.0415039-0.6259766,4.2543945-0.184082,4.9643555       c0.9379883,1.5043945,5.9770508,2.065918,9.2553711,1.8901367c0.543457-0.0292969,1.0229492,0.394043,1.0517578,0.9453125       c0.0292969,0.5512695-0.394043,1.0224609-0.9453125,1.0517578       C72.9049988,40.784668,72.4294128,40.8081055,71.7135925,40.8081055z"></path></g></g></g><g><g><path d="M73.1388855,95.456543c-0.5522461,0-1-0.4477539-1-1v-44.75c0-0.5522461,0.4477539-1,1-1s1,0.4477539,1,1v44.75      C74.1388855,95.0087891,73.6911316,95.456543,73.1388855,95.456543z"></path></g><g><path d="M81.8942566,95.456543c-0.5522461,0-1-0.4477539-1-1v-44.75c0-0.5522461,0.4477539-1,1-1s1,0.4477539,1,1v44.75      C82.8942566,95.0087891,82.4465027,95.456543,81.8942566,95.456543z"></path></g></g><g><path d="M106.2082214,95.456543H48.8249207c-1.4248047,0-2.5839844-1.1689453-2.5839844-2.605957V49.706543     c0-0.5522461,0.4477539-1,1-1h60.5517578c0.5522461,0,1,0.4477539,1,1v43.144043     C108.7926941,94.2875977,107.6335144,95.456543,106.2082214,95.456543z M48.2409363,50.706543v42.144043     c0,0.3339844,0.262207,0.605957,0.5839844,0.605957h57.3833008c0.3222656,0,0.5844727-0.2719727,0.5844727-0.605957V50.706543     H48.2409363z"></path></g><g><path d="M110.2590027,50.706543h-65.484375c-1.1337891,0-2.0561523-0.9291992-2.0561523-2.0708008v-7.7817383     c0-1.1416016,0.9223633-2.0708008,2.0561523-2.0708008h65.484375c1.1337891,0,2.0561523,0.9291992,2.0561523,2.0708008v7.7817383     C112.315155,49.7773438,111.3927917,50.706543,110.2590027,50.706543z M44.7746277,40.7832031l-0.0561523,0.0708008v7.7817383     l65.5405273,0.0708008l0.0561523-7.8525391L44.7746277,40.7832031z"></path></g></g><g><path d="M129.6535339,114.2587891H33.071991c-0.5522461,0-1-0.4477539-1-1V94.456543c0-0.5522461,0.4477539-1,1-1h88.5795898    c0.4008789,0,0.7631836,0.2392578,0.9199219,0.6083984l8.0019531,18.8022461    c0.1318359,0.309082,0.0996094,0.6630859-0.0859375,0.9433594    C130.3024597,114.090332,129.9894714,114.2587891,129.6535339,114.2587891z M34.071991,112.2587891h94.0693359    L120.990448,95.456543H34.071991V112.2587891z"></path></g></g></svg></g></g></svg>