<svg xmlns="http://www.w3.org/2000/svg" xmlns:xlink="http://www.w3.org/1999/xlink" width="125" height="125" viewBox="0 0 100 100"><g><g transform="translate(50 50) scale(0.69 0.69) rotate(0) translate(-50 -50)" style="fill:#000000"><svg fill="#000000" xmlns="http://www.w3.org/2000/svg" xmlns:xlink="http://www.w3.org/1999/xlink" version="1.1" x="0px" y="0px" viewBox="0 0 91 91" style="enable-background:new 0 0 91 91;" xml:space="preserve"><g><path d="M56.4,20.1C67.2,24.1,74,34.9,73.3,46.3L68,40.6l-2.7,2.6l8.2,8.8c0.3,0.4,0.8,0.6,1.3,0.6c0,0,0,0,0.1,0   c0.5,0,0.9-0.2,1.3-0.5l8.8-8.2l-2.6-2.7L77,46c0.6-12.8-7.2-24.9-19.3-29.5c-13-4.9-28,0-35.6,11.6l3.1,2.1   C31.9,20,45,15.8,56.4,20.1z"></path><path d="M17.2,45c0.2,12.1,7.8,23.2,19.3,27.6c3.4,1.3,6.9,1.9,10.5,1.9c9.9,0,19.5-4.9,25.2-13.5L69,59   c-6.7,10.2-19.8,14.4-31.2,10.1c-10.7-4-17.5-14.7-16.9-26l6.1,6.5l2.7-2.6l-8.3-8.7c-0.7-0.8-1.9-0.8-2.7-0.1l-8.7,8.3l2.6,2.7   L17.2,45z"></path></g></svg></g></g></svg>