<svg xmlns="http://www.w3.org/2000/svg" xmlns:xlink="http://www.w3.org/1999/xlink" width="125" height="125" viewBox="0 0 100 100"><g><g transform="translate(50 50) scale(0.99 0.99) rotate(0) translate(-50 -50)" style="fill:#000000"><svg fill="#000000" xmlns="http://www.w3.org/2000/svg" xmlns:xlink="http://www.w3.org/1999/xlink" version="1.1" x="0px" y="0px" viewBox="0 0 91 91" style="enable-background:new 0 0 91 91;" xml:space="preserve"><g><path d="M39.2,39.6c-1,0-1.9,0.8-1.9,1.9v17.9h15.9c2.4,0,4.4-2,4.4-4.4V41.5c0-1-0.8-1.9-1.9-1.9s-1.9,0.8-1.9,1.9V55   c0,0.3-0.3,0.6-0.6,0.6H41V41.5C41,40.4,40.2,39.6,39.2,39.6z"></path><path d="M59.3,36.1c0-1-0.8-1.9-1.9-1.9h-4.9v-5H42.2v5h-4.9c-1,0-1.9,0.8-1.9,1.9s0.8,1.9,1.9,1.9h4.9h10.4h4.9   C58.5,38,59.3,37.1,59.3,36.1z M46,34.2V33h2.9v1.2H46z"></path><path d="M49.3,51.3v-9.8c0-1-0.8-1.9-1.9-1.9s-1.9,0.8-1.9,1.9v9.8c0,1,0.8,1.9,1.9,1.9S49.3,52.3,49.3,51.3z"></path></g></svg></g></g></svg>