<?xml version="1.0" encoding="UTF-8" standalone="no"?>
<svg
   xmlns:dc="http://purl.org/dc/elements/1.1/"
   xmlns:cc="http://creativecommons.org/ns#"
   xmlns:rdf="http://www.w3.org/1999/02/22-rdf-syntax-ns#"
   xmlns:svg="http://www.w3.org/2000/svg"
   xmlns="http://www.w3.org/2000/svg"
   viewBox="0 0 229.26666 90.040001"
   height="90.040001"
   width="229.26666"
   xml:space="preserve"
   id="svg2"
   version="1.1"><metadata
     id="metadata8"><rdf:RDF><cc:Work
         rdf:about=""><dc:format>image/svg+xml</dc:format><dc:type
           rdf:resource="http://purl.org/dc/dcmitype/StillImage" /></cc:Work></rdf:RDF></metadata><defs
     id="defs6"><clipPath
       id="clipPath20"
       clipPathUnits="userSpaceOnUse"><path
         id="path18"
         d="M 0,0 H 1719.54 V 675 H 0 Z" /></clipPath></defs><g
     transform="matrix(1.3333333,0,0,-1.3333333,0,90.04)"
     id="g10"><g
       transform="scale(0.1)"
       id="g12"><g
         id="g14"><g
           clip-path="url(#clipPath20)"
           id="g16"><path
             id="path22"
             style="fill:#ffffff;fill-opacity:1;fill-rule:nonzero;stroke:none"
             d="M 71.1133,216.445 V 125.352 H 55.9766 v 38.867 H 15.207 V 125.352 H 0 v 91.093 h 15.207 v -40.05 h 40.7696 v 40.05 h 15.1367" /><path
             id="path24"
             style="fill:#ffffff;fill-opacity:1;fill-rule:nonzero;stroke:none"
             d="m 150.227,162.703 v 16.524 c 0,15.07 -8.497,26.007 -22.524,26.007 -13.555,0 -21.629,-10.808 -21.629,-26.007 v -16.524 c 0,-15.332 8.125,-26.219 21.699,-26.219 14.082,0 22.461,10.887 22.461,26.219 z m 15.203,16.387 v -16.387 c 0,-22.469 -15.071,-38.672 -37.657,-38.672 -22.207,0 -36.8355,16.328 -36.8355,38.672 v 16.387 c 0,22.277 14.5825,38.664 36.7655,38.664 22.59,0 37.727,-16.387 37.727,-38.664 v 0" /><path
             id="path26"
             style="fill:#ffffff;fill-opacity:1;fill-rule:nonzero;stroke:none"
             d="m 237.551,154.883 h 15.183 c -1.804,-19.207 -13.82,-30.852 -34.89,-30.852 -21.594,0 -35.344,15.395 -35.344,38.164 v 17.336 c 0,22.586 14.023,38.223 35.344,38.223 21.511,0 32.957,-11.191 34.949,-31.211 h -15.188 c -1.57,12.695 -6.941,19.012 -19.761,19.012 -12.699,0 -20.215,-10.703 -20.215,-25.899 v -17.461 c 0,-15.449 7.398,-26.023 20.215,-26.023 12.578,0 18.133,6.133 19.707,18.699 v 0.012" /><path
             id="path28"
             style="fill:#ffffff;fill-opacity:1;fill-rule:nonzero;stroke:none"
             d="m 343.484,216.445 v -91.093 h -15.132 v 38.867 H 287.59 v -38.867 h -15.219 v 91.093 h 15.219 v -40.05 h 40.762 v 40.05 h 15.132" /><path
             id="path30"
             style="fill:#ffffff;fill-opacity:1;fill-rule:nonzero;stroke:none"
             d="m 417.473,148.738 c 0,7.707 -4.551,12.024 -19.075,15.852 -20.832,5.488 -31.777,13.379 -31.777,27.89 0,14.961 13.074,25.274 32.609,25.274 20.301,0 33.368,-12.07 33.368,-27.832 H 417.41 c 0,9.512 -6.387,15.703 -18.316,15.703 -11.25,0 -17.278,-5.254 -17.278,-13.02 0,-3.574 1.575,-6.453 4.766,-8.632 3.125,-2.254 8.496,-4.442 16.191,-6.504 19.954,-5.438 29.903,-13.883 29.903,-28.59 0,-15.453 -12.949,-24.848 -33.028,-24.848 -19.453,0 -35.839,10.324 -35.839,28.598 h 15.195 c 0,-11.262 8.144,-16.527 20.644,-16.527 11.457,0 17.825,4.707 17.825,12.636 v 0" /><path
             id="path32"
             style="fill:#ffffff;fill-opacity:1;fill-rule:nonzero;stroke:none"
             d="m 503.586,154.883 h 15.191 c -1.804,-19.207 -13.816,-30.852 -34.91,-30.852 -21.57,0 -35.332,15.395 -35.332,38.164 v 17.336 c 0,22.586 14.016,38.223 35.332,38.223 21.524,0 32.981,-11.191 34.973,-31.211 h -15.207 c -1.555,12.695 -6.934,19.012 -19.766,19.012 -12.683,0 -20.207,-10.703 -20.207,-25.899 v -17.461 c 0,-15.449 7.395,-26.023 20.207,-26.023 12.571,0 18.137,6.133 19.719,18.699 v 0.012" /><path
             id="path34"
             style="fill:#ffffff;fill-opacity:1;fill-rule:nonzero;stroke:none"
             d="m 609.52,216.445 v -91.093 h -15.133 v 38.867 h -40.782 v -38.867 h -15.187 v 91.093 h 15.187 v -40.05 h 40.782 v 40.05 h 15.133" /><path
             id="path36"
             style="fill:#ffffff;fill-opacity:1;fill-rule:nonzero;stroke:none"
             d="m 688.586,216.445 h 15.203 v -61.054 c 0,-20.594 -14.023,-31.36 -35.723,-31.36 -21.269,0 -35.039,10.832 -35.039,31.36 v 61.054 h 15.215 v -61.054 c 0,-13.02 7.5,-19.219 19.824,-19.219 12.762,0 20.52,6.199 20.52,19.219 v 61.054" /><path
             id="path38"
             style="fill:#ffffff;fill-opacity:1;fill-rule:nonzero;stroke:none"
             d="m 742.234,216.445 v -78.957 h 43.547 v -12.136 h -58.738 v 91.093 h 15.191" /><path
             id="path40"
             style="fill:#ffffff;fill-opacity:1;fill-rule:nonzero;stroke:none"
             d="m 859.211,178.523 v -12.195 h -39.848 v -28.84 h 46.235 V 125.352 H 804.18 v 91.093 h 60.965 v -12.207 h -45.79 v -25.715 h 39.856" /><path
             id="path42"
             style="fill:#ffffff;fill-opacity:1;fill-rule:nonzero;stroke:none"
             d="m 989.004,162.703 v 16.524 c 0,15.07 -8.496,26.007 -22.5,26.007 -13.574,0 -21.649,-10.808 -21.649,-26.007 v -16.524 c 0,-15.332 8.133,-26.219 21.7,-26.219 14.082,0 22.449,10.887 22.449,26.219 z m 15.206,16.387 v -16.387 c 0,-22.469 -15.077,-38.672 -37.655,-38.672 -22.2,0 -36.828,16.328 -36.828,38.672 v 16.387 c 0,22.277 14.57,38.664 36.777,38.664 22.566,0 37.706,-16.387 37.706,-38.664 v 0" /><path
             id="path44"
             style="fill:#ffffff;fill-opacity:1;fill-rule:nonzero;stroke:none"
             d="m 1073.73,148.738 c 0,7.707 -4.55,12.024 -19.06,15.852 -20.83,5.488 -31.78,13.379 -31.78,27.89 0,14.961 13.08,25.274 32.59,25.274 20.32,0 33.41,-12.07 33.41,-27.832 h -15.21 c 0,9.512 -6.38,15.703 -18.33,15.703 -11.26,0 -17.26,-5.254 -17.26,-13.02 0,-3.574 1.56,-6.453 4.76,-8.632 3.12,-2.254 8.51,-4.442 16.19,-6.504 19.95,-5.438 29.9,-13.883 29.9,-28.59 0,-15.453 -12.93,-24.848 -33.02,-24.848 -19.46,0 -35.83,10.324 -35.83,28.598 h 15.18 c 0,-11.262 8.15,-16.527 20.65,-16.527 11.44,0 17.81,4.707 17.81,12.636 v 0" /><path
             id="path46"
             style="fill:#ffffff;fill-opacity:1;fill-rule:nonzero;stroke:none"
             d="m 1180.31,216.445 v -91.093 h -15.13 l -40.59,66.757 -0.2,-0.066 v -66.691 h -15.19 v 91.093 h 15.19 l 40.6,-66.699 0.19,0.067 v 66.632 h 15.13" /><path
             id="path48"
             style="fill:#ffffff;fill-opacity:1;fill-rule:nonzero;stroke:none"
             d="m 1236.1,198.047 -13.32,-38.723 h 26.77 l -13.26,38.723 z m 25.01,-72.695 -7.44,21.777 h -35.08 l -7.51,-21.777 h -15.45 l 33.47,91.093 h 14.45 l 33.01,-91.093 h -15.45" /><path
             id="path50"
             style="fill:#ffffff;fill-opacity:1;fill-rule:nonzero;stroke:none"
             d="m 1327.98,166.766 h -20.89 v -29.278 h 19.4 c 10.5,0 16.13,5.012 16.13,14.004 0,9.836 -4.45,15.274 -14.64,15.274 z m -20.89,37.472 v -26.144 h 16.94 c 9.59,0 15.08,4.375 15.08,12.824 0,9.199 -5.44,13.32 -16.7,13.32 z m 19.4,-78.886 h -34.59 v 91.093 h 30.51 c 20.45,0 31.91,-8.019 31.91,-24.843 0,-8.321 -4.89,-15.02 -13.14,-18.196 v -0.191 c 10.74,-2.317 16.57,-10.949 16.57,-21.711 0,-17.461 -11.2,-26.152 -31.26,-26.152 v 0" /><path
             id="path52"
             style="fill:#ffffff;fill-opacity:1;fill-rule:nonzero;stroke:none"
             d="m 1394.29,204.238 v -29.972 h 17.68 c 11.19,0 16.65,5.265 16.65,15.019 0,9.328 -5.26,14.953 -16.71,14.953 z m 49.53,-14.453 c 0,-11.199 -5.45,-19.269 -15.4,-23.699 l 20.64,-39.555 v -1.179 h -16.7 l -18.2,36.726 h -19.87 v -36.726 h -15.21 v 91.093 h 32.83 c 20.71,0 31.91,-9.316 31.91,-26.66 v 0" /><path
             id="path54"
             style="fill:#ffffff;fill-opacity:1;fill-rule:nonzero;stroke:none"
             d="m 1522.17,238.895 v -13.379 h -15.15 v 13.379 z m -27.79,0 v -13.379 h -15.07 v 13.379 z m 26.47,-22.45 h 15.2 v -61.054 c 0,-20.594 -14.01,-31.36 -35.72,-31.36 -21.27,0 -35.02,10.832 -35.02,31.36 v 61.054 h 15.19 v -61.054 c 0,-13.02 7.52,-19.219 19.83,-19.219 12.77,0 20.52,6.199 20.52,19.219 v 61.054" /><path
             id="path56"
             style="fill:#ffffff;fill-opacity:1;fill-rule:nonzero;stroke:none"
             d="m 1611.65,154.883 h 15.21 c -1.83,-19.207 -13.82,-30.852 -34.91,-30.852 -21.59,0 -35.34,15.395 -35.34,38.164 v 17.336 c 0,22.586 14.02,38.223 35.34,38.223 21.52,0 32.96,-11.191 34.95,-31.211 h -15.18 c -1.56,12.695 -6.94,19.012 -19.77,19.012 -12.7,0 -20.19,-10.703 -20.19,-25.899 v -17.461 c 0,-15.449 7.37,-26.023 20.19,-26.023 12.57,0 18.15,6.133 19.7,18.699 v 0.012" /><path
             id="path58"
             style="fill:#ffffff;fill-opacity:1;fill-rule:nonzero;stroke:none"
             d="m 1700.28,125.352 -29.27,40.046 -9.32,-10.332 v -29.714 h -15.2 v 91.093 h 15.2 v -42.109 l 35.83,42.109 h 18.02 l -34.15,-39.48 38.15,-51.613 h -19.26" /><path
             id="path60"
             style="fill:#ffffff;fill-opacity:1;fill-rule:nonzero;stroke:none"
             d="m 222.727,54.2852 h 4.39 V 18.0078 C 227.117,6.125 219.531,0 207.813,0 196.309,0 188.816,6.125 188.816,18.0078 v 36.2774 h 4.407 V 18.0078 c 0,-9.30858 5.769,-14.30858 14.59,-14.30858 8.996,0 14.914,5 14.914,14.30858 v 36.2774" /><path
             id="path62"
             style="fill:#ffffff;fill-opacity:1;fill-rule:nonzero;stroke:none"
             d="M 283.352,54.2852 V 0.761719 h -4.387 L 248.477,46.9648 248.359,46.9258 V 0.761719 h -4.406 V 54.2852 h 4.406 l 30.508,-46.13286 0.098,0.03125 V 54.2852 h 4.387" /><path
             id="path64"
             style="fill:#ffffff;fill-opacity:1;fill-rule:nonzero;stroke:none"
             d="m 304.363,0.761719 h 4.39844 v 53.5234 H 304.363 Z" /><path
             id="path66"
             style="fill:#ffffff;fill-opacity:1;fill-rule:nonzero;stroke:none"
             d="m 328.906,54.2852 16.067,-44.48051 1.09,-3.78125 h 0.16 l 1.09,3.78125 16.093,44.48051 h 4.739 L 348.23,0.761719 h -4.187 L 324.133,54.2852 h 4.773" /><path
             id="path68"
             style="fill:#ffffff;fill-opacity:1;fill-rule:nonzero;stroke:none"
             d="M 410.438,30.4219 V 26.6797 H 384.68 V 4.46484 h 29.508 V 0.761719 H 380.293 V 54.2852 h 33.699 V 50.5273 H 384.68 V 30.4219 h 25.758" /><path
             id="path70"
             style="fill:#ffffff;fill-opacity:1;fill-rule:nonzero;stroke:none"
             d="M 435.461,50.4883 V 28.2227 h 14.812 c 7.786,0 11.973,4.4921 11.973,10.9882 0,7.0977 -4.558,11.2774 -12.976,11.2774 z m 31.187,-11.3164 c 0,-6.6133 -4.082,-11.8281 -10.386,-13.711 L 469.441,1.35547 V 0.761719 H 464.59 L 451.953,24.4648 H 435.461 V 0.761719 h -4.375 V 54.2383 h 18.184 c 10.984,0 17.378,-5.332 17.378,-15.0664 v 0" /><path
             id="path72"
             style="fill:#ffffff;fill-opacity:1;fill-rule:nonzero;stroke:none"
             d="m 515.105,13.8789 c 0,6.0039 -3.64,9.1563 -14.656,12.0586 -11.941,2.9805 -17.82,7.1367 -17.82,15.2539 0,8.3594 7.273,13.8594 18.035,13.8594 11.211,0 18.477,-6.7969 18.477,-16.0391 h -4.368 c 0,7.3281 -5.281,12.2969 -14.109,12.2969 -8.711,0 -13.672,-4.2305 -13.672,-10.0078 0,-5.4727 3.75,-8.711 14.883,-11.5039 11.73,-2.9805 17.637,-7.4922 17.637,-15.8438 C 519.512,5.25391 511.941,0 500.93,0 490.012,0 480.898,5.28125 480.898,15.9766 h 4.375 c 0,-8.52738 7.012,-12.27738 15.645,-12.27738 8.633,0 14.187,3.97656 14.187,10.17968 v 0" /><path
             id="path74"
             style="fill:#ffffff;fill-opacity:1;fill-rule:nonzero;stroke:none"
             d="m 538.223,0.761719 h 4.40625 v 53.5234 H 538.223 Z" /><path
             id="path76"
             style="fill:#ffffff;fill-opacity:1;fill-rule:nonzero;stroke:none"
             d="M 598.379,54.2852 V 50.5273 H 580.203 V 0.761719 h -4.402 V 50.5273 h -18.145 v 3.7579 h 40.723" /><path
             id="path78"
             style="fill:#ffffff;fill-opacity:1;fill-rule:nonzero;stroke:none"
             d="m 611.184,54.2852 16.453,-29.7422 16.582,29.7422 h 5.105 L 629.805,20.3203 V 0.761719 h -4.367 V 20.5742 l -19.364,33.711 h 5.11" /><path
             id="path80"
             style="fill:#ffffff;fill-opacity:1;fill-rule:nonzero;stroke:none"
             d="m 718.367,23.1445 v 8.7891 c 0,11.4648 -6.179,19.2461 -16.57,19.2461 -10.149,0 -16.184,-7.7813 -16.184,-19.2461 v -8.7891 c 0,-11.582 6.075,-19.33591 16.223,-19.33591 10.43,0 16.531,7.72271 16.531,19.33591 z m 4.406,8.711 v -8.711 C 722.773,9.35547 714.59,0 701.836,0 689.297,0 681.223,9.35547 681.223,23.1445 v 8.711 c 0,13.7109 8.035,23.1953 20.574,23.1953 12.754,0 20.976,-9.4844 20.976,-23.1953 v 0" /><path
             id="path82"
             style="fill:#ffffff;fill-opacity:1;fill-rule:nonzero;stroke:none"
             d="M 768.809,29.6172 V 25.8398 H 742.781 V 0.761719 h -4.363 V 54.2852 h 34.133 v -3.7579 h -29.77 V 29.6172 h 26.028" /><path
             id="path84"
             style="fill:#ffffff;fill-opacity:1;fill-rule:nonzero;stroke:none"
             d="M 824.363,48.8789 813.484,19.6172 h 21.594 z M 842.043,0.761719 836.484,15.8672 H 812.078 L 806.504,0.761719 h -4.551 l 20.32,53.523481 h 4.153 L 846.602,0.761719 h -4.559" /><path
             id="path86"
             style="fill:#ffffff;fill-opacity:1;fill-rule:nonzero;stroke:none"
             d="M 863.113,50.5273 V 26.7578 h 14.035 c 9.012,0 13.274,4.8828 13.274,11.8281 0,7.0196 -4.262,11.9414 -13.274,11.9414 z M 877.148,23 H 863.113 V 0.761719 h -4.375 V 54.2852 h 18.41 c 11.473,0 17.649,-6.0704 17.649,-15.6329 0,-9.707 -6.176,-15.664 -17.649,-15.664 V 23" /><path
             id="path88"
             style="fill:#ffffff;fill-opacity:1;fill-rule:nonzero;stroke:none"
             d="M 911.934,50.5273 V 26.7578 h 14.035 c 9.011,0 13.269,4.8828 13.269,11.8281 0,7.0196 -4.258,11.9414 -13.269,11.9414 z M 925.969,23 H 911.934 V 0.761719 h -4.375 V 54.2852 h 18.41 c 11.48,0 17.652,-6.0704 17.652,-15.6329 0,-9.707 -6.172,-15.664 -17.652,-15.664 V 23" /><path
             id="path90"
             style="fill:#ffffff;fill-opacity:1;fill-rule:nonzero;stroke:none"
             d="M 962.297,54.2852 V 4.46484 h 26.465 V 0.761719 H 957.891 V 54.2852 h 4.406" /><path
             id="path92"
             style="fill:#ffffff;fill-opacity:1;fill-rule:nonzero;stroke:none"
             d="m 1004.85,0.761719 h 4.418 v 53.5234 h -4.418 z" /><path
             id="path94"
             style="fill:#ffffff;fill-opacity:1;fill-rule:nonzero;stroke:none"
             d="m 1060.4,30.4219 v -3.7422 h -25.75 V 4.46484 h 29.5 V 0.761719 h -33.87 V 54.2852 h 33.69 v -3.7579 h -29.32 V 30.4219 h 25.75" /><path
             id="path96"
             style="fill:#ffffff;fill-opacity:1;fill-rule:nonzero;stroke:none"
             d="m 1096.72,50.5273 h -11.18 V 4.46484 h 10.85 c 11.49,0 18.52,7.83986 18.52,19.59766 v 6.9922 c 0,11.7578 -7.03,19.4726 -18.19,19.4726 z m -0.33,-49.765581 h -15.21 V 54.2852 h 15.54 c 13.56,0 22.59,-9.3438 22.59,-23.3477 v -6.875 c 0,-14.11328 -8.96,-23.300781 -22.92,-23.300781" /><path
             id="path98"
             style="fill:#ffffff;fill-opacity:1;fill-rule:nonzero;stroke:none"
             d="m 1191.43,13.8789 c 0,6.0039 -3.64,9.1563 -14.66,12.0586 -11.96,2.9805 -17.82,7.1367 -17.82,15.2539 0,8.3594 7.27,13.8594 18.03,13.8594 11.21,0 18.5,-6.7969 18.5,-16.0391 h -4.39 c 0,7.3281 -5.28,12.2969 -14.11,12.2969 -8.71,0 -13.67,-4.2305 -13.67,-10.0078 0,-5.4727 3.75,-8.711 14.88,-11.5039 11.73,-2.9805 17.64,-7.4922 17.64,-15.8438 C 1195.83,5.25391 1188.26,0 1177.24,0 c -10.91,0 -20.02,5.28125 -20.02,15.9766 h 4.37 c 0,-8.52738 7.02,-12.27738 15.65,-12.27738 8.63,0 14.19,3.97656 14.19,10.17968 v 0" /><path
             id="path100"
             style="fill:#ffffff;fill-opacity:1;fill-rule:nonzero;stroke:none"
             d="m 1242.78,17.4219 h 4.38 C 1245.98,6.23828 1239.22,0 1227.74,0 c -12.15,0 -19.91,9.17969 -19.91,23.1445 v 8.711 c 0,13.9258 7.76,23.1953 19.91,23.1953 11.58,0 18.28,-6.0977 19.42,-17.461 h -4.38 c -1.17,9.0899 -5.89,13.7188 -15.04,13.7188 -9.55,0 -15.5,-7.793 -15.5,-19.375 v -8.7891 c 0,-11.7187 5.95,-19.44528 15.5,-19.44528 9.24,0 13.87,4.33594 15.04,13.72268 v 0" /><path
             id="path102"
             style="fill:#ffffff;fill-opacity:1;fill-rule:nonzero;stroke:none"
             d="m 1265.23,0.761719 h 4.4102 v 53.5234 h -4.4102 z" /><path
             id="path104"
             style="fill:#ffffff;fill-opacity:1;fill-rule:nonzero;stroke:none"
             d="m 1320.79,30.4219 v -3.7422 h -25.75 V 4.46484 h 29.5 V 0.761719 h -33.88 V 54.2852 h 33.7 v -3.7579 h -29.32 V 30.4219 h 25.75" /><path
             id="path106"
             style="fill:#ffffff;fill-opacity:1;fill-rule:nonzero;stroke:none"
             d="M 1379.43,54.2852 V 0.761719 h -4.37 l -30.49,46.203081 -0.12,-0.039 V 0.761719 h -4.4 V 54.2852 h 4.4 l 30.49,-46.13286 0.12,0.03125 V 54.2852 h 4.37" /><path
             id="path108"
             style="fill:#ffffff;fill-opacity:1;fill-rule:nonzero;stroke:none"
             d="m 1430.21,17.4219 h 4.36 C 1433.4,6.23828 1426.63,0 1415.18,0 c -12.17,0 -19.93,9.17969 -19.93,23.1445 v 8.711 c 0,13.9258 7.76,23.1953 19.93,23.1953 11.58,0 18.26,-6.0977 19.39,-17.461 h -4.36 c -1.18,9.0899 -5.88,13.7188 -15.03,13.7188 -9.56,0 -15.5,-7.793 -15.5,-19.375 v -8.7891 c 0,-11.7187 5.94,-19.44528 15.5,-19.44528 9.21,0 13.85,4.33594 15.03,13.72268 v 0" /><path
             id="path110"
             style="fill:#ffffff;fill-opacity:1;fill-rule:nonzero;stroke:none"
             d="m 1479.57,30.4219 v -3.7422 h -25.75 V 4.46484 h 29.5 V 0.761719 h -33.88 V 54.2852 h 33.69 v -3.7579 h -29.31 V 30.4219 h 25.75" /><path
             id="path112"
             style="fill:#ffffff;fill-opacity:1;fill-rule:nonzero;stroke:none"
             d="m 1527.18,13.8789 c 0,6.0039 -3.64,9.1563 -14.66,12.0586 -11.95,2.9805 -17.82,7.1367 -17.82,15.2539 0,8.3594 7.28,13.8594 18.04,13.8594 11.21,0 18.48,-6.7969 18.48,-16.0391 h -4.37 c 0,7.3281 -5.29,12.2969 -14.11,12.2969 -8.71,0 -13.68,-4.2305 -13.68,-10.0078 0,-5.4727 3.76,-8.711 14.9,-11.5039 11.71,-2.9805 17.63,-7.4922 17.63,-15.8438 C 1531.59,5.25391 1524.02,0 1512.99,0 c -10.91,0 -20.01,5.28125 -20.01,15.9766 h 4.36 c 0,-8.52738 7.04,-12.27738 15.65,-12.27738 8.64,0 14.19,3.97656 14.19,10.17968 v 0" /><path
             id="path114"
             style="fill:#ffffff;fill-opacity:1;fill-rule:nonzero;stroke:none"
             d="M 1088.72,583.441 963.547,533.344 v 100.195 l 125.173,-50.098" /><path
             id="path116"
             style="fill:#ffffff;fill-opacity:1;fill-rule:nonzero;stroke:none"
             d="M 754.895,533.344 629.68,583.441 859.23,675.277 V 575.102 L 754.895,533.344" /><path
             id="path118"
             style="fill:#ffffff;fill-opacity:1;fill-rule:nonzero;stroke:none"
             d="M 608.816,575.102 V 474.918 l 146.079,-58.449 v 100.187 l -146.079,58.446 z m 4.403,-6.5 137.273,-54.926 v -90.707 l -137.273,54.926 v 90.707" /><path
             id="path120"
             style="fill:#ffffff;fill-opacity:1;fill-rule:nonzero;stroke:none"
             d="M 1109.6,575.102 859.23,474.918 V 374.723 l 250.37,100.195 z m -4.4,-6.5 V 477.895 L 863.629,381.219 v 90.719 l 241.571,96.664" /></g></g></g></g></svg>