<?xml version="1.0" encoding="UTF-8" standalone="no"?>
<svg
   xmlns:dc="http://purl.org/dc/elements/1.1/"
   xmlns:cc="http://creativecommons.org/ns#"
   xmlns:rdf="http://www.w3.org/1999/02/22-rdf-syntax-ns#"
   xmlns:svg="http://www.w3.org/2000/svg"
   xmlns="http://www.w3.org/2000/svg"
   viewBox="0 0 377.94666 113.38667"
   height="113.38667"
   width="377.94666"
   xml:space="preserve"
   id="svg2"
   version="1.1"><metadata
     id="metadata8"><rdf:RDF><cc:Work
         rdf:about=""><dc:format>image/svg+xml</dc:format><dc:type
           rdf:resource="http://purl.org/dc/dcmitype/StillImage" /></cc:Work></rdf:RDF></metadata><defs
     id="defs6"><clipPath
       id="clipPath20"
       clipPathUnits="userSpaceOnUse"><path
         id="path18"
         d="M 0,0 H 2834.64 V 850 H 0 Z" /></clipPath></defs><g
     transform="matrix(1.3333333,0,0,-1.3333333,0,113.38667)"
     id="g10"><g
       transform="scale(0.1)"
       id="g12"><g
         id="g14"><g
           clip-path="url(#clipPath20)"
           id="g16"><path
             id="path22"
             style="fill:#4f4c4c;fill-opacity:1;fill-rule:nonzero;stroke:none"
             d="m 628.66,304.008 v -91.094 h -15.137 v 38.867 h -40.769 v -38.867 h -15.203 v 91.094 h 15.203 v -40.047 h 40.769 v 40.047 h 15.137" /><path
             id="path24"
             style="fill:#4f4c4c;fill-opacity:1;fill-rule:nonzero;stroke:none"
             d="m 707.773,250.27 v 16.523 c 0,15.066 -8.496,26.004 -22.519,26.004 -13.555,0 -21.633,-10.809 -21.633,-26.004 V 250.27 c 0,-15.332 8.125,-26.223 21.699,-26.223 14.082,0 22.461,10.891 22.461,26.223 z m 15.207,16.386 V 250.27 c 0,-22.473 -15.07,-38.672 -37.66,-38.672 -22.207,0 -36.836,16.328 -36.836,38.672 v 16.386 c 0,22.274 14.582,38.66 36.77,38.66 22.59,0 37.726,-16.386 37.726,-38.66 v 0" /><path
             id="path26"
             style="fill:#4f4c4c;fill-opacity:1;fill-rule:nonzero;stroke:none"
             d="m 795.098,242.445 h 15.183 c -1.804,-19.207 -13.816,-30.847 -34.89,-30.847 -21.59,0 -35.34,15.39 -35.34,38.164 v 17.332 c 0,22.59 14.019,38.222 35.34,38.222 21.511,0 32.961,-11.191 34.953,-31.211 h -15.188 c -1.57,12.696 -6.941,19.016 -19.765,19.016 -12.696,0 -20.215,-10.703 -20.215,-25.898 v -17.461 c 0,-15.449 7.402,-26.028 20.215,-26.028 12.578,0 18.132,6.133 19.707,18.704 v 0.007" /><path
             id="path28"
             style="fill:#4f4c4c;fill-opacity:1;fill-rule:nonzero;stroke:none"
             d="m 901.035,304.008 v -91.094 h -15.137 v 38.867 h -40.761 v -38.867 h -15.215 v 91.094 h 15.215 v -40.047 h 40.761 v 40.047 h 15.137" /><path
             id="path30"
             style="fill:#4f4c4c;fill-opacity:1;fill-rule:nonzero;stroke:none"
             d="m 975.02,236.305 c 0,7.703 -4.551,12.019 -19.075,15.847 -20.828,5.489 -31.773,13.379 -31.773,27.891 0,14.961 13.074,25.273 32.605,25.273 20.301,0 33.368,-12.07 33.368,-27.832 h -15.184 c 0,9.512 -6.387,15.704 -18.32,15.704 -11.25,0 -17.278,-5.254 -17.278,-13.016 0,-3.574 1.575,-6.457 4.77,-8.633 3.125,-2.258 8.496,-4.445 16.187,-6.504 19.953,-5.441 29.907,-13.887 29.907,-28.594 0,-15.449 -12.954,-24.843 -33.032,-24.843 -19.453,0 -35.84,10.32 -35.84,28.593 h 15.2 c 0,-11.261 8.14,-16.523 20.64,-16.523 11.457,0 17.825,4.707 17.825,12.637 v 0" /><path
             id="path32"
             style="fill:#4f4c4c;fill-opacity:1;fill-rule:nonzero;stroke:none"
             d="m 1061.13,242.445 h 15.2 c -1.81,-19.207 -13.82,-30.847 -34.91,-30.847 -21.58,0 -35.34,15.39 -35.34,38.164 v 17.332 c 0,22.59 14.02,38.222 35.34,38.222 21.52,0 32.97,-11.191 34.97,-31.211 h -15.21 c -1.55,12.696 -6.93,19.016 -19.76,19.016 -12.69,0 -20.21,-10.703 -20.21,-25.898 v -17.461 c 0,-15.449 7.39,-26.028 20.21,-26.028 12.56,0 18.13,6.133 19.71,18.704 v 0.007" /><path
             id="path34"
             style="fill:#4f4c4c;fill-opacity:1;fill-rule:nonzero;stroke:none"
             d="m 1167.07,304.008 v -91.094 h -15.14 v 38.867 h -40.78 v -38.867 h -15.18 v 91.094 h 15.18 v -40.047 h 40.78 v 40.047 h 15.14" /><path
             id="path36"
             style="fill:#4f4c4c;fill-opacity:1;fill-rule:nonzero;stroke:none"
             d="m 1246.13,304.008 h 15.21 v -61.055 c 0,-20.594 -14.03,-31.355 -35.72,-31.355 -21.27,0 -35.04,10.828 -35.04,31.355 v 61.055 h 15.21 v -61.055 c 0,-13.015 7.5,-19.219 19.83,-19.219 12.76,0 20.51,6.204 20.51,19.219 v 61.055" /><path
             id="path38"
             style="fill:#4f4c4c;fill-opacity:1;fill-rule:nonzero;stroke:none"
             d="m 1299.79,304.008 v -78.953 h 43.54 v -12.141 h -58.74 v 91.094 h 15.2" /><path
             id="path40"
             style="fill:#4f4c4c;fill-opacity:1;fill-rule:nonzero;stroke:none"
             d="m 1416.76,266.09 v -12.199 h -39.85 v -28.836 h 46.23 v -12.141 h -61.41 v 91.094 h 60.97 v -12.207 h -45.8 V 266.09 h 39.86" /><path
             id="path42"
             style="fill:#4f4c4c;fill-opacity:1;fill-rule:nonzero;stroke:none"
             d="m 1546.55,250.27 v 16.523 c 0,15.066 -8.49,26.004 -22.5,26.004 -13.57,0 -21.65,-10.809 -21.65,-26.004 V 250.27 c 0,-15.332 8.14,-26.223 21.7,-26.223 14.08,0 22.45,10.891 22.45,26.223 z m 15.21,16.386 V 250.27 c 0,-22.473 -15.08,-38.672 -37.66,-38.672 -22.2,0 -36.82,16.328 -36.82,38.672 v 16.386 c 0,22.274 14.57,38.66 36.77,38.66 22.57,0 37.71,-16.386 37.71,-38.66 v 0" /><path
             id="path44"
             style="fill:#4f4c4c;fill-opacity:1;fill-rule:nonzero;stroke:none"
             d="m 1631.28,236.305 c 0,7.703 -4.55,12.019 -19.06,15.847 -20.83,5.489 -31.78,13.379 -31.78,27.891 0,14.961 13.08,25.273 32.59,25.273 20.32,0 33.41,-12.07 33.41,-27.832 h -15.21 c 0,9.512 -6.38,15.704 -18.33,15.704 -11.26,0 -17.27,-5.254 -17.27,-13.016 0,-3.574 1.57,-6.457 4.77,-8.633 3.12,-2.258 8.51,-4.445 16.19,-6.504 19.95,-5.441 29.89,-13.887 29.89,-28.594 0,-15.449 -12.93,-24.843 -33.01,-24.843 -19.47,0 -35.83,10.32 -35.83,28.593 h 15.18 c 0,-11.261 8.15,-16.523 20.65,-16.523 11.44,0 17.81,4.707 17.81,12.637 v 0" /><path
             id="path46"
             style="fill:#4f4c4c;fill-opacity:1;fill-rule:nonzero;stroke:none"
             d="m 1737.86,304.008 v -91.094 h -15.14 l -40.58,66.758 -0.2,-0.067 v -66.691 h -15.19 v 91.094 h 15.19 l 40.6,-66.699 0.18,0.07 v 66.629 h 15.14" /><path
             id="path48"
             style="fill:#4f4c4c;fill-opacity:1;fill-rule:nonzero;stroke:none"
             d="m 1793.65,285.609 -13.32,-38.718 h 26.77 l -13.26,38.718 z m 25.01,-72.695 -7.44,21.777 h -35.08 l -7.51,-21.777 h -15.45 l 33.47,91.094 h 14.45 l 33.01,-91.094 h -15.45" /><path
             id="path50"
             style="fill:#4f4c4c;fill-opacity:1;fill-rule:nonzero;stroke:none"
             d="m 1885.53,254.332 h -20.89 v -29.277 h 19.4 c 10.5,0 16.13,5.008 16.13,14.004 0,9.832 -4.45,15.273 -14.64,15.273 z m -20.89,37.469 V 265.66 h 16.94 c 9.59,0 15.08,4.375 15.08,12.82 0,9.2 -5.44,13.321 -16.7,13.321 z m 19.4,-78.887 h -34.59 v 91.094 h 30.51 c 20.45,0 31.91,-8.016 31.91,-24.844 0,-8.32 -4.89,-15.019 -13.14,-18.191 v -0.196 c 10.74,-2.316 16.57,-10.949 16.57,-21.711 0,-17.461 -11.2,-26.152 -31.26,-26.152 v 0" /><path
             id="path52"
             style="fill:#4f4c4c;fill-opacity:1;fill-rule:nonzero;stroke:none"
             d="m 1951.84,291.801 v -29.969 h 17.68 c 11.19,0 16.65,5.262 16.65,15.02 0,9.324 -5.26,14.949 -16.71,14.949 z m 49.53,-14.453 c 0,-11.2 -5.45,-19.266 -15.4,-23.7 l 20.64,-39.55 v -1.184 h -16.7 l -18.2,36.731 h -19.87 v -36.731 h -15.21 v 91.094 h 32.83 c 20.71,0 31.91,-9.317 31.91,-26.66 v 0" /><path
             id="path54"
             style="fill:#4f4c4c;fill-opacity:1;fill-rule:nonzero;stroke:none"
             d="m 2079.72,326.461 v -13.379 h -15.15 v 13.379 z m -27.79,0 v -13.379 h -15.07 v 13.379 z m 26.47,-22.453 h 15.2 v -61.055 c 0,-20.594 -14.01,-31.355 -35.72,-31.355 -21.27,0 -35.02,10.828 -35.02,31.355 v 61.055 h 15.19 v -61.055 c 0,-13.015 7.52,-19.219 19.83,-19.219 12.76,0 20.52,6.204 20.52,19.219 v 61.055" /><path
             id="path56"
             style="fill:#4f4c4c;fill-opacity:1;fill-rule:nonzero;stroke:none"
             d="m 2169.2,242.445 h 15.2 c -1.82,-19.207 -13.81,-30.847 -34.9,-30.847 -21.59,0 -35.34,15.39 -35.34,38.164 v 17.332 c 0,22.59 14.01,38.222 35.34,38.222 21.52,0 32.96,-11.191 34.95,-31.211 h -15.18 c -1.56,12.696 -6.95,19.016 -19.77,19.016 -12.7,0 -20.19,-10.703 -20.19,-25.898 v -17.461 c 0,-15.449 7.37,-26.028 20.19,-26.028 12.57,0 18.15,6.133 19.7,18.704 v 0.007" /><path
             id="path58"
             style="fill:#4f4c4c;fill-opacity:1;fill-rule:nonzero;stroke:none"
             d="m 2257.83,212.914 -29.28,40.051 -9.31,-10.332 v -29.719 h -15.2 v 91.094 h 15.2 v -42.11 l 35.83,42.11 h 18.02 l -34.15,-39.481 38.15,-51.613 h -19.26" /><path
             id="path60"
             style="fill:#4f4c4c;fill-opacity:1;fill-rule:nonzero;stroke:none"
             d="m 780.273,141.852 h 4.395 V 105.57 c 0,-11.8825 -7.59,-18.0075 -19.309,-18.0075 -11.504,0 -18.992,6.125 -18.992,18.0075 v 36.282 h 4.403 V 105.57 c 0,-9.3044 5.773,-14.3044 14.589,-14.3044 8.996,0 14.914,5 14.914,14.3044 v 36.282" /><path
             id="path62"
             style="fill:#4f4c4c;fill-opacity:1;fill-rule:nonzero;stroke:none"
             d="M 840.898,141.852 V 88.3242 h -4.382 l -30.493,46.2028 -0.117,-0.039 V 88.3242 h -4.402 v 53.5278 h 4.402 l 30.512,-46.1332 0.098,0.0273 v 46.1059 h 4.382" /><path
             id="path64"
             style="fill:#4f4c4c;fill-opacity:1;fill-rule:nonzero;stroke:none"
             d="m 861.914,88.3242 h 4.39453 v 53.5273 H 861.914 Z" /><path
             id="path66"
             style="fill:#4f4c4c;fill-opacity:1;fill-rule:nonzero;stroke:none"
             d="m 886.453,141.852 16.067,-44.4848 1.093,-3.7774 h 0.157 l 1.093,3.7774 16.094,44.4848 h 4.734 l -19.91,-53.5278 h -4.187 L 881.68,141.852 h 4.773" /><path
             id="path68"
             style="fill:#4f4c4c;fill-opacity:1;fill-rule:nonzero;stroke:none"
             d="m 967.988,117.984 v -3.742 H 942.227 V 92.0273 h 29.511 v -3.7031 h -33.894 v 53.5278 h 33.699 v -3.762 h -29.316 v -20.106 h 25.761" /><path
             id="path70"
             style="fill:#4f4c4c;fill-opacity:1;fill-rule:nonzero;stroke:none"
             d="m 993.008,138.051 v -22.266 h 14.812 c 7.79,0 11.97,4.492 11.97,10.988 0,7.098 -4.56,11.278 -12.97,11.278 z m 31.192,-11.317 c 0,-6.613 -4.08,-11.828 -10.39,-13.711 l 13.18,-24.1011 v -0.5977 h -4.85 L 1009.5,112.027 H 993.008 V 88.3242 h -4.375 v 53.4768 h 18.187 c 10.98,0 17.38,-5.332 17.38,-15.067 v 0" /><path
             id="path72"
             style="fill:#4f4c4c;fill-opacity:1;fill-rule:nonzero;stroke:none"
             d="m 1072.66,101.441 c 0,6.004 -3.65,9.161 -14.66,12.059 -11.95,2.98 -17.82,7.141 -17.82,15.254 0,8.359 7.27,13.859 18.03,13.859 11.21,0 18.48,-6.797 18.48,-16.035 h -4.37 c 0,7.324 -5.28,12.293 -14.11,12.293 -8.71,0 -13.67,-4.226 -13.67,-10.008 0,-5.468 3.75,-8.711 14.88,-11.504 11.73,-2.98 17.64,-7.492 17.64,-15.839 0,-8.7036 -7.57,-13.9575 -18.58,-13.9575 -10.92,0 -20.03,5.2852 -20.03,15.9765 h 4.37 c 0,-8.5234 7.01,-12.2734 15.65,-12.2734 8.63,0 14.19,3.9727 14.19,10.1754 v 0" /><path
             id="path74"
             style="fill:#4f4c4c;fill-opacity:1;fill-rule:nonzero;stroke:none"
             d="m 1095.77,88.3242 h 4.4102 v 53.5273 h -4.4102 z" /><path
             id="path76"
             style="fill:#4f4c4c;fill-opacity:1;fill-rule:nonzero;stroke:none"
             d="m 1155.93,141.852 v -3.762 h -18.18 V 88.3242 h -4.4 V 138.09 h -18.14 v 3.762 h 40.72" /><path
             id="path78"
             style="fill:#4f4c4c;fill-opacity:1;fill-rule:nonzero;stroke:none"
             d="m 1168.73,141.852 16.46,-29.747 16.58,29.747 h 5.11 l -19.53,-33.965 V 88.3242 h -4.36 v 19.8168 l -19.37,33.711 h 5.11" /><path
             id="path80"
             style="fill:#4f4c4c;fill-opacity:1;fill-rule:nonzero;stroke:none"
             d="m 1275.92,110.707 v 8.789 c 0,11.465 -6.18,19.25 -16.57,19.25 -10.15,0 -16.19,-7.785 -16.19,-19.25 v -8.789 c 0,-11.582 6.08,-19.3359 16.22,-19.3359 10.43,0 16.54,7.7266 16.54,19.3359 z m 4.4,8.711 v -8.711 c 0,-13.789 -8.18,-23.1445 -20.94,-23.1445 -12.53,0 -20.61,9.3555 -20.61,23.1445 v 8.711 c 0,13.711 8.04,23.195 20.58,23.195 12.75,0 20.97,-9.484 20.97,-23.195 v 0" /><path
             id="path82"
             style="fill:#4f4c4c;fill-opacity:1;fill-rule:nonzero;stroke:none"
             d="m 1326.36,117.184 v -3.782 h -26.03 V 88.3242 h -4.36 v 53.5278 h 34.13 v -3.762 h -29.77 v -20.906 h 26.03" /><path
             id="path84"
             style="fill:#4f4c4c;fill-opacity:1;fill-rule:nonzero;stroke:none"
             d="m 1381.91,136.441 -10.87,-29.257 h 21.59 z m 17.68,-48.1168 -5.56,15.1098 h -24.4 l -5.58,-15.1098 h -4.55 l 20.32,53.5278 h 4.15 l 20.18,-53.5278 h -4.56" /><path
             id="path86"
             style="fill:#4f4c4c;fill-opacity:1;fill-rule:nonzero;stroke:none"
             d="m 1420.66,138.09 v -23.77 h 14.04 c 9.01,0 13.27,4.883 13.27,11.828 0,7.02 -4.26,11.942 -13.27,11.942 z m 14.04,-27.527 h -14.04 V 88.3242 h -4.37 v 53.5278 h 18.41 c 11.47,0 17.64,-6.075 17.64,-15.637 0,-9.707 -6.17,-15.664 -17.64,-15.664 v 0.012" /><path
             id="path88"
             style="fill:#4f4c4c;fill-opacity:1;fill-rule:nonzero;stroke:none"
             d="m 1469.48,138.09 v -23.77 h 14.04 c 9.01,0 13.27,4.883 13.27,11.828 0,7.02 -4.26,11.942 -13.27,11.942 z m 14.04,-27.527 h -14.04 V 88.3242 h -4.37 v 53.5278 h 18.41 c 11.48,0 17.65,-6.075 17.65,-15.637 0,-9.707 -6.17,-15.664 -17.65,-15.664 v 0.012" /><path
             id="path90"
             style="fill:#4f4c4c;fill-opacity:1;fill-rule:nonzero;stroke:none"
             d="M 1519.84,141.852 V 92.0273 h 26.47 v -3.7031 h -30.87 v 53.5278 h 4.4" /><path
             id="path92"
             style="fill:#4f4c4c;fill-opacity:1;fill-rule:nonzero;stroke:none"
             d="m 1562.4,88.3242 h 4.4219 v 53.5273 H 1562.4 Z" /><path
             id="path94"
             style="fill:#4f4c4c;fill-opacity:1;fill-rule:nonzero;stroke:none"
             d="m 1617.95,117.984 v -3.742 H 1592.2 V 92.0273 h 29.5 v -3.7031 h -33.87 v 53.5278 h 33.69 v -3.762 h -29.32 v -20.106 h 25.75" /><path
             id="path96"
             style="fill:#4f4c4c;fill-opacity:1;fill-rule:nonzero;stroke:none"
             d="m 1654.27,138.09 h -11.18 V 92.0273 h 10.85 c 11.49,0 18.52,7.8399 18.52,19.5977 v 6.992 c 0,11.758 -7.03,19.473 -18.19,19.473 z m -0.33,-49.7658 h -15.21 v 53.5278 h 15.54 c 13.56,0 22.59,-9.348 22.59,-23.352 v -6.875 c 0,-14.1094 -8.96,-23.3008 -22.92,-23.3008" /><path
             id="path98"
             style="fill:#4f4c4c;fill-opacity:1;fill-rule:nonzero;stroke:none"
             d="m 1748.97,101.441 c 0,6.004 -3.63,9.161 -14.65,12.059 -11.96,2.98 -17.83,7.141 -17.83,15.254 0,8.359 7.28,13.859 18.04,13.859 11.21,0 18.5,-6.797 18.5,-16.035 h -4.39 c 0,7.324 -5.28,12.293 -14.11,12.293 -8.71,0 -13.67,-4.226 -13.67,-10.008 0,-5.468 3.75,-8.711 14.88,-11.504 11.73,-2.98 17.64,-7.492 17.64,-15.839 0,-8.7036 -7.57,-13.9575 -18.59,-13.9575 -10.91,0 -20.02,5.2852 -20.02,15.9765 h 4.37 c 0,-8.5234 7.02,-12.2734 15.65,-12.2734 8.63,0 14.18,3.9727 14.18,10.1754 v 0" /><path
             id="path100"
             style="fill:#4f4c4c;fill-opacity:1;fill-rule:nonzero;stroke:none"
             d="m 1800.33,104.984 h 4.38 c -1.18,-11.1793 -7.94,-17.4215 -19.42,-17.4215 -12.16,0 -19.91,9.1797 -19.91,23.1445 v 8.711 c 0,13.926 7.75,23.195 19.91,23.195 11.58,0 18.27,-6.093 19.42,-17.461 h -4.38 c -1.17,9.09 -5.89,13.719 -15.04,13.719 -9.55,0 -15.5,-7.793 -15.5,-19.375 v -8.789 c 0,-11.7187 5.95,-19.4414 15.5,-19.4414 9.24,0 13.87,4.336 15.04,13.7184 v 0" /><path
             id="path102"
             style="fill:#4f4c4c;fill-opacity:1;fill-rule:nonzero;stroke:none"
             d="m 1822.78,88.3242 h 4.4102 v 53.5273 h -4.4102 z" /><path
             id="path104"
             style="fill:#4f4c4c;fill-opacity:1;fill-rule:nonzero;stroke:none"
             d="m 1878.34,117.984 v -3.742 h -25.75 V 92.0273 h 29.5 v -3.7031 h -33.88 v 53.5278 h 33.69 v -3.762 h -29.31 v -20.106 h 25.75" /><path
             id="path106"
             style="fill:#4f4c4c;fill-opacity:1;fill-rule:nonzero;stroke:none"
             d="M 1936.98,141.852 V 88.3242 h -4.37 l -30.49,46.2028 -0.12,-0.039 V 88.3242 h -4.4 v 53.5278 h 4.4 l 30.49,-46.1332 0.12,0.0273 v 46.1059 h 4.37" /><path
             id="path108"
             style="fill:#4f4c4c;fill-opacity:1;fill-rule:nonzero;stroke:none"
             d="m 1987.75,104.984 h 4.37 c -1.17,-11.1793 -7.94,-17.4215 -19.4,-17.4215 -12.16,0 -19.92,9.1797 -19.92,23.1445 v 8.711 c 0,13.926 7.76,23.195 19.92,23.195 11.59,0 18.27,-6.093 19.4,-17.461 h -4.37 c -1.17,9.09 -5.87,13.719 -15.03,13.719 -9.56,0 -15.49,-7.793 -15.49,-19.375 v -8.789 c 0,-11.7187 5.93,-19.4414 15.49,-19.4414 9.22,0 13.86,4.336 15.03,13.7184 v 0" /><path
             id="path110"
             style="fill:#4f4c4c;fill-opacity:1;fill-rule:nonzero;stroke:none"
             d="m 2037.12,117.984 v -3.742 h -25.75 V 92.0273 h 29.5 v -3.7031 h -33.88 v 53.5278 h 33.69 v -3.762 h -29.31 v -20.106 h 25.75" /><path
             id="path112"
             style="fill:#4f4c4c;fill-opacity:1;fill-rule:nonzero;stroke:none"
             d="m 2084.73,101.441 c 0,6.004 -3.64,9.161 -14.66,12.059 -11.95,2.98 -17.82,7.141 -17.82,15.254 0,8.359 7.28,13.859 18.04,13.859 11.2,0 18.48,-6.797 18.48,-16.035 h -4.38 c 0,7.324 -5.28,12.293 -14.1,12.293 -8.71,0 -13.68,-4.226 -13.68,-10.008 0,-5.468 3.76,-8.711 14.89,-11.504 11.72,-2.98 17.64,-7.492 17.64,-15.839 0,-8.7036 -7.57,-13.9575 -18.6,-13.9575 -10.91,0 -20.01,5.2852 -20.01,15.9765 h 4.36 c 0,-8.5234 7.03,-12.2734 15.65,-12.2734 8.64,0 14.19,3.9727 14.19,10.1754 v 0" /><path
             id="path114"
             style="fill:#00adef;fill-opacity:1;fill-rule:nonzero;stroke:none"
             d="M 1646.24,670.992 1521.05,620.895 V 721.09 l 125.19,-50.098" /><path
             id="path116"
             style="fill:#00adef;fill-opacity:1;fill-rule:nonzero;stroke:none"
             d="m 1312.4,620.895 -125.2,50.097 229.54,91.836 V 662.652 L 1312.4,620.895" /><path
             id="path118"
             style="fill:#bdbcbc;fill-opacity:1;fill-rule:nonzero;stroke:none"
             d="m 1312.4,504.02 -146.06,58.445 V 662.652 L 1312.4,604.203 V 504.02" /><path
             id="path120"
             style="fill:#bdbcbc;fill-opacity:1;fill-rule:nonzero;stroke:none"
             d="M 1667.12,562.465 V 662.652 L 1416.74,562.465 V 462.27 l 250.38,100.195" /></g></g></g></g></svg>