<svg xmlns="http://www.w3.org/2000/svg" xmlns:xlink="http://www.w3.org/1999/xlink" width="125" height="125" viewBox="0 0 100 100"><g><g transform="translate(50 50) scale(0.69 0.69) rotate(0) translate(-50 -50)" style="fill:#000000"><svg fill="#000000" xmlns="http://www.w3.org/2000/svg" xmlns:xlink="http://www.w3.org/1999/xlink" version="1.1" x="0px" y="0px" viewBox="0 0 100 100" enable-background="new 0 0 100 100" xml:space="preserve"><g><path d="M53.155,32.858c3.062,0,6.042,0.928,8.617,2.685c0.912,0.623,2.156,0.387,2.779-0.525c0.622-0.913,0.387-2.157-0.525-2.779   c-3.242-2.211-7.001-3.38-10.871-3.38c-9.366,0-17.229,6.812-19.425,15.978h-4.63c-1.104,0-2,0.896-2,2s0.896,2,2,2h4.056   c-0.02,0.388-0.056,0.771-0.056,1.164c0,0.911,0.073,1.802,0.18,2.683h-4.18c-1.104,0-2,0.896-2,2s0.896,2,2,2h5.043   c2.661,8.389,10.17,14.459,19.012,14.459c3.87,0,7.629-1.169,10.871-3.38c0.912-0.622,1.147-1.867,0.525-2.779   c-0.623-0.912-1.867-1.149-2.779-0.525c-2.575,1.756-5.555,2.685-8.617,2.685c-6.633,0-12.339-4.317-14.783-10.459h20.352   c1.104,0,2-0.896,2-2s-0.896-2-2-2H37.317c-0.13-0.876-0.217-1.768-0.217-2.683c0-0.393,0.031-0.778,0.056-1.164h21.567   c1.104,0,2-0.896,2-2s-0.896-2-2-2H37.849C39.905,37.9,45.988,32.858,53.155,32.858z"></path><path d="M50.001,6.666C26.106,6.666,6.667,26.105,6.667,50s19.439,43.334,43.334,43.334c23.894,0,43.332-19.439,43.332-43.334   S73.895,6.666,50.001,6.666z M50.001,89.334c-21.688,0-39.334-17.646-39.334-39.334c0-21.689,17.646-39.334,39.334-39.334   c21.688,0,39.332,17.645,39.332,39.334C89.333,71.688,71.688,89.334,50.001,89.334z"></path></g></svg></g></g></svg>